<svg xmlns="http://www.w3.org/2000/svg" viewBox="0 0 266.8 194.5">
    <path fill="none" stroke="#0c6e77" d="M50.9 110.5 43.3 116.2 42 123.2 49.3 115.3 50.9 110.5zM225 123.1 223.717 116.233 216.2 110.5 217.8 115.3 225 123.1z"/>
    <path fill="none" stroke="#0c6e77" d="m40.1 194.5 22.6-15.8-.2 7.3m-12.1 8.5 12.1-8.6h4.2l4.425 4.2h0L64.8 194.5M43.3 116.2l1.15-4.7L34.3 123.9l-7.1 16.5L19.1 169l15.2-36.2Zm43.725-10.025L85.15 87.7 79.8 85.2l-7.3 25.3ZM33.4 153.3l9.9-37.1-9 16.6L19.1 169l.2 25.5M46 107.6l-1.55 3.9-1.15 4.7 7.6-5.7 7-5.3 12.8 5.5 1.8-.2 7.3-25.3L61.7 95.3Zm26.5 2.9-9.8 68.2 8.425 11.4L100.5 179.467 87.025 106.175Zm-32.4 84 23-69.2-26 24.1L42 123.2l1.3-7-9.9 37.1-1 41.2M247.8 194.5l.2-25.4-15.2-36.2-9.083-16.667L233.6 153.3m-.8-20.4L248 169.1l-8.3-28.6L232.6 124l-9.967-12.433 1.084 4.666Zm0 0L248 169.1l-8.3-28.6L232.6 124l-9.967-12.433 1.084 4.666Zm-38.175-22.425L187.333 85.2 182 87.7l-1.9 18.48Zm1.675.225 12.9-5.5 7 5.3 7.517 5.733-1.084-4.666L221.3 107.7 205.6 95.4 187.333 85.2l7.292 25.275Zm-.4 79.4 8.5-11.5h0l-9.775-68.125L180.1 106.18 166.5 179.3Zm31.1 4.4-22.6-15.8.2 7.2m12.7 8.6-12.8-8.6h-4.2l-4.5 4.2 6 4.4m32.7 0-.9-41.2-9.883-37.067L225 123.1l4.9 26.3L204 125.2l22.9 69.3"/>
    <path fill="none" stroke="#0c6e77" d="M136.6 84.8l-3-3.2-3.1 3.2-.9 3.1v.3l1.3 1.1h5.2l1.3-1.1v-.3Zm44.5 109.7-47.5-9.8h0l-49.3 9.8m39.6-99.9 9.7 2.2V89.3h-2.7l-1.3-1.1v-.3l.9-3.1 3.1-3.2V73.35L108.4 79.5 85.15 87.7l1.875 18.475Zm9.7-21.25V81.6l3 3.2.8 3.1v.3l-1.3 1.1h-2.5v7.5l9.7-2.2 36.8 11.58L182 87.7l-23.2-8.1ZM123.9 94.6 87.025 106.175 100.5 179.467l33-1.967.1-80.7Zm42.6 84.8 13.6-73.22L143.3 94.6l-9.7 2.2-.1 80.7Zm-33 5.3v-7.2"/>
    <path id="frontLights" fill="none" stroke="#0c6e77" d="m198 118.1-1.7-7.4 12.9-5.5 7 5.3 7.517 5.733L225 123.1l4.9 26.3L204 125.2ZM69.1 118.1l1.6-7.4-12.8-5.5-7 5.3-7.6 5.7-1.3 7-4.9 26.2 26-24.1Z"/>
    <path id="fogLights" fill="none" d="M.3 0 37.1 149.4l26-24.1 6-7.2 1.6-7.4L98.8 0ZM266.7 0 229.9 149.4 204 125.2l-6-7.1-1.7-7.4L168.2 0Z"/>
    <path id="topLights" fill="none" d="M22.7 0 37.1 149.4l26-24.1 6-7.2 1.6-7.4L83.3 0ZM244.3 0 229.9 149.4 204 125.2l-6-7.1-1.7-7.4L183.7 0z"/>
    <path id="emptyPath" fill="none" stroke="#0c6e77" d=""/>
</svg>
